<?xml version="1.0" encoding="UTF-8"?>
<svg width="1200pt" height="1200pt" version="1.1" viewBox="0 0 1200 1200" xmlns="http://www.w3.org/2000/svg">
 <path d="m1142.4 526.8-500.4-373.2c-25.199-18-58.801-18-82.801 0l-501.6 373.2c-31.199 22.801-37.199 67.199-14.398 97.199 22.801 31.199 67.199 37.199 97.199 14.398l79.199-58.801v411.6c0 38.398 31.199 69.602 69.602 69.602h620.4c38.398 0 69.602-31.199 69.602-69.602l-0.003906-411.6 79.199 58.801c12 9.6016 27.602 14.398 42 14.398 21.602 0 42-9.6016 56.398-27.602 22.805-31.199 15.602-75.598-14.398-98.398zm-651.6 126c-6 14.398-12 27.602-16.801 40.801-10.801 25.199-18 46.801-19.199 68.398-1.1992 20.398 4.8008 44.398 13.199 69.602v1.1992c4.8008 14.398-2.3984 30-16.801 34.801-10.801 3.6016-22.801 0-30-8.3984-20.398-24-38.398-57.602-40.801-94.801-1.1992-19.199 1.1992-37.199 4.8008-54 4.8008-16.801 9.6016-32.398 15.602-46.801l18-39.602c4.8008-10.801 8.3984-20.398 10.801-30 2.3984-9.6016 2.3984-20.398 1.1992-31.199 0-6-1.1992-10.801-3.6016-16.801-1.1992-4.8008-3.6016-12-4.8008-14.398l-2.3984-9.6016c-3.6016-14.398 6-27.602 19.199-31.199 9.6016-2.3984 19.199 1.1992 25.199 7.1992 8.3984 8.3984 12 14.398 18 22.801 4.8008 8.3984 8.3984 15.602 12 25.199 6 18 9.6016 36 8.3984 55.199 0.003906 16.801-5.9961 36-11.996 51.602zm158.4 0c-6 14.398-12 27.602-16.801 40.801-10.801 25.199-18 46.801-19.199 68.398-1.1992 20.398 4.8008 44.398 13.199 69.602v1.1992c4.8008 14.398-2.3984 30-16.801 34.801-10.801 3.6016-22.801 0-30-8.3984-20.398-24-38.398-57.602-40.801-94.801-1.1992-19.199 1.1992-37.199 4.8008-54 4.8008-16.801 9.6016-32.398 15.602-46.801l18-39.602c4.8008-10.801 8.3984-20.398 10.801-30 2.3984-9.6016 2.3984-20.398 1.1992-31.199 0-6-1.1992-10.801-3.6016-16.801-1.1992-4.8008-3.6016-12-4.8008-14.398l-2.3984-9.6016c-3.6016-14.398 6-27.602 19.199-31.199 9.6016-2.3984 19.199 1.1992 25.199 7.1992 8.3984 8.3984 12 14.398 18 22.801 4.8008 8.3984 8.3984 15.602 12 25.199 6 18 9.6016 36 8.3984 55.199 0.003907 16.801-5.9961 36-11.996 51.602zm157.2 0c-6 14.398-12 27.602-16.801 40.801-10.801 25.199-18 46.801-19.199 68.398-1.1992 20.398 4.8008 44.398 13.199 69.602v1.1992c4.8008 14.398-2.3984 30-16.801 34.801-10.801 3.6016-22.801 0-30-8.3984-20.398-24-38.398-57.602-40.801-94.801-1.1992-19.199 1.1992-37.199 4.8008-54 4.8008-16.801 9.6016-32.398 15.602-46.801l18-39.602c4.8008-10.801 8.3984-20.398 10.801-30 2.3984-9.6016 2.3984-20.398 1.1992-31.199 0-6-1.1992-10.801-3.6016-16.801-1.1992-4.8008-3.6016-12-4.8008-14.398l-2.3984-9.6016c-3.6016-14.398 6-27.602 19.199-31.199 9.6016-2.3984 19.199 1.1992 25.199 7.1992 8.3984 8.3984 12 14.398 18 22.801 4.8008 8.3984 8.3984 15.602 12 25.199 6 18 9.6016 36 8.3984 55.199 0.003907 16.801-5.9961 36-11.996 51.602z"/>
</svg>
